<svg width="192" height="138" viewBox="0 0 192 138" fill="none" xmlns="http://www.w3.org/2000/svg">
<path d="M64.68 129.888C66.024 129.888 67.128 130.176 67.992 130.752C68.952 131.328 69.432 132.336 69.432 133.776C69.432 134.448 69.192 135.024 68.712 135.504C68.232 136.08 67.608 136.512 66.84 136.8C66.168 137.184 65.448 137.472 64.68 137.664C64.008 137.856 63.384 137.952 62.808 137.952C59.736 137.952 56.712 136.896 53.736 134.784C50.76 132.672 47.88 129.984 45.096 126.72C42.408 123.456 39.912 119.904 37.608 116.064C35.304 112.224 33.24 108.576 31.416 105.12C29.592 101.664 28.056 98.64 26.808 96.048C25.656 93.456 24.888 91.776 24.504 91.008C23.448 90.912 22.056 90.816 20.328 90.72C18.6 90.528 17.208 90.24 16.152 89.856C15.672 91.104 15.144 92.688 14.568 94.608C13.992 96.432 13.368 98.448 12.696 100.656C12.024 102.864 11.304 105.12 10.536 107.424C9.768 109.728 9 111.936 8.232 114.048C7.656 115.68 6.84 116.736 5.784 117.216C4.728 117.696 3.72 117.744 2.76 117.36C1.896 117.072 1.176 116.304 0.6 115.056C0.12 113.904 0.12 112.368 0.6 110.448C0.792 109.584 1.272 107.952 2.04 105.552C2.808 103.152 3.624 100.608 4.488 97.92C5.352 95.232 6.12 92.736 6.792 90.432C7.56 88.128 8.088 86.592 8.376 85.824C6.072 84.48 4.728 82.8 4.344 80.784C4.056 78.768 4.296 76.896 5.064 75.168C5.928 73.344 7.176 71.904 8.808 70.848C10.44 69.792 12.072 69.456 13.704 69.84C13.896 69.264 14.424 67.776 15.288 65.376C16.152 62.88 17.16 59.952 18.312 56.592C19.464 53.232 20.712 49.68 22.056 45.936C23.4 42.192 24.648 38.688 25.8 35.424C26.952 32.16 27.96 29.424 28.824 27.216C29.688 24.912 30.264 23.568 30.552 23.184C31.32 21.936 32.136 21.216 33 21.024C33.96 20.736 34.776 20.784 35.448 21.168C36.216 21.552 36.744 22.176 37.032 23.04C37.416 23.808 37.464 24.672 37.176 25.632C36.312 28.32 35.256 31.584 34.008 35.424C32.76 39.168 31.416 43.152 29.976 47.376C28.632 51.6 27.192 55.968 25.656 60.48C24.216 64.896 22.776 69.12 21.336 73.152C22.68 73.92 24.024 75.12 25.368 76.752C26.808 78.384 27.96 80.016 28.824 81.648C36.216 77.328 42.696 71.952 48.264 65.52C53.928 58.992 58.872 52.176 63.096 45.072C67.32 37.872 70.968 30.768 74.04 23.76C77.112 16.656 79.8 10.416 82.104 5.04C82.584 3.984 83.208 2.976 83.976 2.01599C84.744 1.05599 85.8 0.575993 87.144 0.575993C88.2 0.575993 89.112 0.911994 89.88 1.584C90.744 2.16 91.176 2.97599 91.176 4.03199C91.176 4.512 91.032 5.184 90.744 6.048C90.552 6.91199 90.264 7.82399 89.88 8.784C89.496 9.648 89.064 10.464 88.584 11.232C88.104 11.904 87.624 12.288 87.144 12.384C85.704 15.552 84.024 19.2 82.104 23.328C80.28 27.456 78.168 31.824 75.768 36.432C73.464 40.944 70.872 45.6 67.992 50.4C65.112 55.104 61.8 59.76 58.056 64.368C54.408 68.88 50.328 73.2 45.816 77.328C41.4 81.36 36.504 84.96 31.128 88.128C31.896 90.048 32.952 92.4 34.296 95.184C35.64 97.968 37.176 100.896 38.904 103.968C40.632 107.04 42.504 110.112 44.52 113.184C46.632 116.256 48.792 118.992 51 121.392C53.208 123.888 55.464 125.904 57.768 127.44C60.072 128.976 62.376 129.792 64.68 129.888ZM157.944 89.136C158.52 89.136 158.952 89.616 159.24 90.576C159.624 91.44 159.72 92.208 159.528 92.88C159.144 94.224 158.328 95.664 157.08 97.2C155.928 98.736 154.488 100.176 152.76 101.52C151.032 102.768 149.064 103.824 146.856 104.688C144.744 105.552 142.536 105.984 140.232 105.984C137.256 105.984 135.048 105.024 133.608 103.104C132.168 101.184 131.4 99.072 131.304 96.768C130.248 97.92 129.096 99.168 127.848 100.512C126.6 101.856 125.256 103.104 123.816 104.256C122.376 105.312 120.84 106.224 119.208 106.992C117.672 107.76 116.088 108.144 114.456 108.144C112.44 108.144 110.712 107.52 109.272 106.272C107.832 104.928 107.064 103.296 106.968 101.376C105.144 102.72 103.128 103.824 100.92 104.688C98.7116 105.552 96.4556 105.984 94.1516 105.984C91.1756 105.984 88.9676 105.024 87.5276 103.104C86.0876 101.184 85.3196 99.072 85.2236 96.768C84.1676 97.92 83.0156 99.168 81.7676 100.512C80.5196 101.856 79.1756 103.104 77.7356 104.256C76.2956 105.312 74.7596 106.224 73.1276 106.992C71.5916 107.76 70.0076 108.144 68.3756 108.144C66.2636 108.144 64.4876 107.472 63.0476 106.128C61.6076 104.688 60.8876 102.912 60.8876 100.8C60.8876 98.688 61.7036 96.24 63.3356 93.456C64.9676 90.672 66.9836 88.032 69.3836 85.536C71.8796 83.04 74.5196 80.976 77.3036 79.344C80.0876 77.616 82.6796 76.752 85.0796 76.752C86.3276 76.752 87.5276 77.184 88.6796 78.048C89.9276 78.816 90.6476 79.92 90.8396 81.36C91.4156 81.744 92.0876 82.032 92.8556 82.224C93.7196 82.32 94.3916 83.088 94.8716 84.528C94.1036 86.64 93.4796 88.56 92.9996 90.288C92.6156 92.016 92.4236 93.936 92.4236 96.048C92.4236 97.104 92.6156 98.16 92.9996 99.216C93.4796 100.176 94.2476 100.656 95.3036 100.656C97.9916 100.656 100.632 99.744 103.224 97.92C105.912 96 108.264 94.032 110.28 92.016C111.24 90.672 112.44 89.136 113.88 87.408C115.416 85.584 117.096 83.904 118.92 82.368C120.84 80.736 122.856 79.392 124.968 78.336C127.08 77.28 129.144 76.752 131.16 76.752C132.408 76.752 133.608 77.184 134.76 78.048C136.008 78.816 136.728 79.92 136.92 81.36C137.496 81.744 138.168 82.032 138.936 82.224C139.8 82.32 140.472 83.088 140.952 84.528C140.184 86.64 139.56 88.56 139.08 90.288C138.696 92.016 138.504 93.936 138.504 96.048C138.504 97.104 138.696 98.16 139.08 99.216C139.56 100.176 140.328 100.656 141.384 100.656C143.112 100.656 144.792 100.272 146.424 99.504C148.152 98.64 149.736 97.632 151.176 96.48C152.712 95.232 154.056 93.984 155.208 92.736C156.36 91.392 157.272 90.192 157.944 89.136ZM115.032 103.536C116.664 103.536 118.44 102.672 120.36 100.944C122.376 99.12 124.248 97.104 125.976 94.896C127.704 92.592 129.144 90.384 130.296 88.272C131.544 86.16 132.168 84.768 132.168 84.096C132.168 83.328 132.024 82.704 131.736 82.224C131.448 81.744 130.776 81.744 129.72 82.224C127.032 83.376 124.44 85.152 121.944 87.552C119.544 89.952 117.528 92.352 115.896 94.752C114.36 97.056 113.4 99.12 113.016 100.944C112.728 102.672 113.4 103.536 115.032 103.536ZM68.9516 103.536C70.5836 103.536 72.3596 102.672 74.2796 100.944C76.2956 99.12 78.1676 97.104 79.8956 94.896C81.6236 92.592 83.0636 90.384 84.2156 88.272C85.4636 86.16 86.0876 84.768 86.0876 84.096C86.0876 83.328 85.9436 82.704 85.6556 82.224C85.3676 81.744 84.6956 81.744 83.6396 82.224C80.9516 83.376 78.3596 85.152 75.8636 87.552C73.4636 89.952 71.4476 92.352 69.8156 94.752C68.2796 97.056 67.3196 99.12 66.9356 100.944C66.6476 102.672 67.3196 103.536 68.9516 103.536ZM191.321 102.384C191.129 104.016 190.553 105.312 189.593 106.272C188.633 107.136 187.529 107.616 186.281 107.712C185.129 107.712 183.977 107.328 182.825 106.56C181.769 105.792 181.049 104.544 180.665 102.816C180.377 101.472 180.137 99.984 179.945 98.352C179.849 96.624 179.705 95.04 179.513 93.6C179.417 92.16 179.273 90.96 179.081 90C178.889 88.944 178.505 88.416 177.929 88.416C176.489 88.416 174.761 89.328 172.745 91.152C170.729 92.976 168.665 95.04 166.553 97.344C164.441 99.648 162.425 101.808 160.505 103.824C158.585 105.84 156.953 106.992 155.609 107.28C154.553 107.568 153.449 107.52 152.297 107.136C151.241 106.656 150.617 105.888 150.425 104.832C150.425 104.448 150.713 103.296 151.289 101.376C151.865 99.36 152.537 97.2 153.305 94.896C154.073 92.496 154.841 90.24 155.609 88.128C156.473 85.92 157.049 84.48 157.337 83.808C157.817 82.752 158.729 82.176 160.073 82.08C161.417 81.984 162.473 82.416 163.241 83.376C163.721 84.144 163.913 85.2 163.817 86.544C163.721 87.792 162.953 90.096 161.513 93.456C162.761 92.208 164.105 90.864 165.545 89.424C167.081 87.888 168.665 86.544 170.297 85.392C172.025 84.24 173.753 83.424 175.481 82.944C177.305 82.368 179.129 82.368 180.953 82.944C182.681 83.52 183.881 84.48 184.553 85.824C185.225 87.072 185.657 88.512 185.849 90.144C186.041 91.68 186.089 93.312 185.993 95.04C185.993 96.672 186.185 98.112 186.569 99.36C187.241 101.664 188.825 102.672 191.321 102.384Z" fill="url(#paint0_linear)"/>
<defs>
<linearGradient id="paint0_linear" x1="7" y1="9" x2="191" y2="130" gradientUnits="userSpaceOnUse">
<stop stop-color="#43D698"/>
<stop offset="1" stop-color="#7077B8"/>
</linearGradient>
</defs>
</svg>
